<svg fill="#7a71ff" height="402pt" viewBox="0 0 402 402.528" width="402pt" xmlns="http://www.w3.org/2000/svg"><path d="m153.839844 237.601562-129.839844 129.839844-23.734375 35.085938 34.671875-23.398438 130.214844-130.21875zm0 0"/><path d="m295.257812 5.671875c-3.125 3.125-3.125 8.1875 0 11.3125l90.511719 90.503906c3.15625 3.03125 8.144531 3.03125 11.300781 0l5.65625-5.65625-101.804687-101.832031zm0 0"/><path d="m261.320312 311.136719c21.835938-21.886719 21.835938-57.316407 0-79.199219l-90.511718-90.503906c-21.871094-21.875-57.332032-21.875-79.199219 0l-5.65625 5.664062 169.703125 169.703125zm0 0"/><path d="m188.367188 136.375 78.015624 78.007812 91.640626-112.007812-57.648438-57.648438zm0 0"/></svg>